# xmcd CD database file
#
# Track frame offsets:
#	150
#	23046
#	43778
#	79410
#	92121
#	103129
#	135821
#	162959
#	173623
#	183984
#	219306
#	228072
#	242702
#	253992
#	264841
#	276670
#
# Disc length: 3877 seconds
#
# Revision: 0
# Processed by: cddbd v1.5.2PL0 Copyright (c) Steve Scherf et al.
# Submitted via: CDex 1.51
#
DISCID=d40f2310
DTITLE=Roy Eldridge - Seven Classic Albums CD3
DYEAR=1957
DGENRE=Jazz
TTITLE0=Buggle Call Rag
TTITLE1=Jada
TTITLE2=Bean Stalkin'
TTITLE3=The Nearness Of You
TTITLE4=Time On My Hands
TTITLE5=The Walker
TTITLE6=Tea For Two
TTITLE7=Blue Moon
TTITLE8=Cocktails For Two
TTITLE9=Kerry
TTITLE10=It Never Entered My Mind
TTITLE11=You're Blasé
TTITLE12=A Foggy Day
TTITLE13=Stars Fell On Alabama
TTITLE14=Can't We Be Friends
TTITLE15=I Can't Get Started
EXTD=YEAR: 1957
EXTT0=
EXTT1=
EXTT2=
EXTT3=
EXTT4=
EXTT5=
EXTT6=
EXTT7=
EXTT8=
EXTT9=
EXTT10=
EXTT11=
EXTT12=
EXTT13=
EXTT14=
EXTT15=
PLAYORDER=
